# File created by Blade
# Date/Time:  Tue Jan 27 17:01:45 2015
#---------------------------------------------------------
:version 1.10
:name HOM
:units
  mass 1.0
  length 1.000000
  angle deg
:documentation
     Acclaim Skeleton File
:root
   axis xyz
   order TX TY TZ RX RY RZ
   position 0.000000 0.000000 0.000000
   orientation 0 0 0
:bonedata
   begin
      id 1
      name Spine_dum
      direction 0.000000 1.000000 0.000000
      length 7.539951
      axis 0.0 0.0 0.0 xyz
   end
   begin
      id 2
      name LeftUpLeg_dum
      direction 1.000000 0.000000 0.000000
      length 3.345476
      axis 0.0 0.0 0.0 xyz
   end
   begin
      id 3
      name RightUpLeg_dum
      direction -1.000000 0.000000 0.000000
      length 3.345476
      axis 0.0 0.0 0.0 xyz
   end
   begin
      id 4
      name Spine
      direction 0.000000 1.000000 0.000000
      length 0.000000
      axis 0.0 0.0 0.0 xyz
      dof rx ry rz
   end
   begin
      id 5
      name Spine_dum1
      direction 0.000000 1.000000 0.000000
      length 15.093809
      axis 0.0 0.0 0.0 xyz
   end
   begin
      id 6
      name Spine_dum2
      direction 0.000000 1.000000 0.000000
      length 9.738928
      axis 0.0 0.0 0.0 xyz
   end
   begin
      id 7
      name Spine_dum3
      direction 0.000000 1.000000 0.000000
      length 9.738928
      axis 0.0 0.0 0.0 xyz
   end
   begin
      id 8
      name Head
      direction 0.000000 1.000000 0.000000
      length 4.527550
      axis 0.0 0.0 0.0 xyz
      dof rx ry rz
   end
   begin
      id 9
      name LeftShoulder
      direction 1.000000 0.000000 0.000000
      length 7.084015
      axis 0.0 0.0 -90.0 xyz
      dof rx ry rz
   end
   begin
      id 10
      name LeftArm
      direction 1.000000 0.000000 0.000000
      length 10.259319
      axis 0.0 0.0 -90.0 xyz
      dof rx ry rz
   end
   begin
      id 11
      name LeftForeArm
      direction 1.000000 0.000000 0.000000
      length 9.896984
      axis 0.0 0.0 -90.0 xyz
      dof ry rz rx
   end
   begin
      id 12
      name LeftHand
      direction 0.000000 0.000000 0.000000
      length 0.000000
      axis 0.0 0.0 -90.0 xyz
      dof rx ry rz
   end
   begin
      id 13
      name LeftHand_dum1
      direction 0.000000 0.000000 0.000000
      length 0.000000
      axis 0.0 0.0 -90.0 xyz
   end
   begin
      id 14
      name LeftHand_dum2
      direction 1.000000 0.000000 0.000000
      length 3.937000
      axis 0.0 0.0 -90.0 xyz
   end
   begin
      id 15
      name LeftHandThumb1
      direction 0.000000 0.000000 1.000000
      length 3.937000
      axis 0.0 0.0 -90.0 xyz
      dof rx rz ry
   end
   begin
      id 16
      name RightShoulder
      direction -1.000000 0.000000 0.000000
      length 7.084015
      axis 0.0 0.0 90.0 xyz
      dof rx ry rz
   end
   begin
      id 17
      name RightArm
      direction -1.000000 0.000000 0.000000
      length 10.259319
      axis 0.0 0.0 90.0 xyz
      dof rx ry rz
   end
   begin
      id 18
      name RightForeArm
      direction -1.000000 0.000000 0.000000
      length 9.896984
      axis 0.0 0.0 90.0 xyz
      dof ry rz rx
   end
   begin
      id 19
      name RightHand
      direction 0.000000 0.000000 0.000000
      length 0.000000
      axis 0.0 0.0 90.0 xyz
      dof rx ry rz
   end
   begin
      id 20
      name RightHand_dum1
      direction 0.000000 0.000000 0.000000
      length 0.000000
      axis 0.0 0.0 90.0 xyz
   end
   begin
      id 21
      name RightHand_dum2
      direction -1.000000 0.000000 0.000000
      length 3.937000
      axis 0.0 0.0 90.0 xyz
   end
   begin
      id 22
      name RightHandThumb1
      direction 0.000000 0.000000 1.000000
      length 3.937000
      axis 0.0 0.0 90.0 xyz
      dof rx rz ry
   end
   begin
      id 23
      name LeftUpLeg
      direction 0.000000 -1.000000 0.000000
      length 19.114733
      axis 0.0 0.0 0.0 xyz
      dof rx ry rz
   end
   begin
      id 24
      name LeftLeg
      direction 0.000000 -1.000000 0.000000
      length 16.045604
      axis 0.0 0.0 0.0 xyz
      dof rx ry rz
   end
   begin
      id 25
      name LeftFoot
      direction 0.000000 -0.258819 0.965926
      length 5.543155
      axis 15.0 0.0 0.0 xyz
      dof rx ry rz
   end
   begin
      id 26
      name LeftToeBase
      direction 0.000000 0.000000 1.000000
      length 2.952750
      axis 0.0 0.0 0.0 xyz
      dof rx ry rz
   end
   begin
      id 27
      name RightUpLeg
      direction 0.000000 -1.000000 0.000000
      length 19.114733
      axis 0.0 0.0 0.0 xyz
      dof rx ry rz
   end
   begin
      id 28
      name RightLeg
      direction 0.000000 -1.000000 0.000000
      length 16.045604
      axis 0.0 0.0 0.0 xyz
      dof rx ry rz
   end
   begin
      id 29
      name RightFoot
      direction 0.000000 -0.258819 0.965926
      length 5.543155
      axis 15.0 0.0 0.0 xyz
      dof rx ry rz
   end
   begin
      id 30
      name RightToeBase
      direction 0.000000 0.000000 1.000000
      length 2.952750
      axis 0.0 0.0 0.0 xyz
      dof rx ry rz
   end
:hierarchy
   begin
      root Spine_dum LeftUpLeg_dum RightUpLeg_dum
      Spine_dum Spine
      LeftUpLeg_dum LeftUpLeg
      RightUpLeg_dum RightUpLeg
      Spine Spine_dum1 Spine_dum2 Spine_dum3
      Spine_dum1 Head
      Spine_dum2 LeftShoulder
      Spine_dum3 RightShoulder
      LeftShoulder LeftArm
      LeftArm LeftForeArm
      LeftForeArm LeftHand
      LeftHand LeftHand_dum1 LeftHand_dum2
      LeftHand_dum1 LeftHandThumb1
      RightShoulder RightArm
      RightArm RightForeArm
      RightForeArm RightHand
      RightHand RightHand_dum1 RightHand_dum2
      RightHand_dum1 RightHandThumb1
      LeftUpLeg LeftLeg
      LeftLeg LeftFoot
      LeftFoot LeftToeBase
      RightUpLeg RightLeg
      RightLeg RightFoot
      RightFoot RightToeBase
   end

# File created by Blade
# Date/Time:  Tue Jan 27 17:01:38 2015
# Frame Rate: 120.000 fps
#------------------------------------------------------
:FULLY-SPECIFIED
:DEGREES
2053
root -1.248254 36.853839 5.179577 6.993897 0.768758 -1.259750
Spine -3.282523 4.770796 -3.885951
Head 0.694310 9.675126 1.756443
LeftShoulder -0.106770 -6.261622 -3.566312
LeftArm -1.852684 -19.069216 -65.054506
LeftForeArm -60.232243 0.000000 94.386455
LeftHand -1.510010 -0.000000 -6.202184
LeftHandThumb1 -26.253704 0.000000 33.147579
RightShoulder -1.140867 -21.872855 -0.417844
RightArm 26.114853 -32.268600 53.055061
RightForeArm -147.818027 -0.000000 34.448202
RightHand -1.644616 -0.000000 -1.660991
RightHandThumb1 -24.326973 -0.000000 -32.862282
LeftUpLeg -4.502304 13.319911 5.623311
LeftLeg 7.243750 -0.000000 -0.000000
LeftFoot -16.422982 2.722531 -21.256345
LeftToeBase 14.951735 -0.000000 -0.000000
RightUpLeg -6.615620 -10.428392 0.219288
RightLeg 10.523802 -0.000000 -0.000000
RightFoot -16.113272 -4.000504 13.703895
RightToeBase 10.791522 -0.000000 -0.000000
2054
root -1.250035 36.853095 5.182189 6.985153 0.781228 -1.259716
Spine -3.291032 4.775368 -3.892389
Head 0.709522 9.682007 1.769904
LeftShoulder -0.112943 -6.281476 -3.574490
LeftArm -1.870334 -19.034653 -65.040765
LeftForeArm -60.282243 0.000000 94.433909
LeftHand -1.531195 -0.000000 -6.093713
LeftHandThumb1 -26.253704 0.000000 33.147579
RightShoulder -1.147114 -21.895707 -0.418272
RightArm 26.095644 -32.268375 53.078939
RightForeArm -147.833876 -0.000000 34.404398
RightHand -1.661386 -0.000000 -1.733123
RightHandThumb1 -24.326973 -0.000000 -32.862282
LeftUpLeg -4.496401 13.325348 5.631704
LeftLeg 7.256152 -0.000000 -0.000000
LeftFoot -16.421408 2.695128 -21.255916
LeftToeBase 14.947124 -0.000000 -0.000000
RightUpLeg -6.610916 -10.454951 0.223781
RightLeg 10.544733 -0.000000 -0.000000
RightFoot -16.123358 -4.001072 13.697461
RightToeBase 10.767400 -0.000000 -0.000000
2055
root -1.252500 36.852391 5.184810 6.973998 0.814042 -1.258482
Spine -3.296448 4.780267 -3.899213
Head 0.719228 9.681975 1.786250
LeftShoulder -0.112891 -6.303126 -3.581193
LeftArm -1.876437 -19.022643 -65.037816
LeftForeArm -60.295808 -0.000000 94.486210
LeftHand -1.685459 0.000000 -5.949384
LeftHandThumb1 -26.253704 0.000000 33.147579
RightShoulder -1.161097 -21.912457 -0.404963
RightArm 26.048286 -32.265920 53.107778
RightForeArm -147.824295 0.000000 34.374386
RightHand -1.605984 0.000000 -1.741408
RightHandThumb1 -24.326973 -0.000000 -32.862282
LeftUpLeg -4.492338 13.285462 5.641507
LeftLeg 7.267041 -0.000000 -0.000000
LeftFoot -16.426917 2.686227 -21.266375
LeftToeBase 14.943680 -0.000000 -0.000000
RightUpLeg -6.597908 -10.490782 0.229337
RightLeg 10.559353 -0.000000 -0.000000
RightFoot -16.154253 -4.005812 13.724946
RightToeBase 10.802235 -0.000000 -0.000000
2056
root -1.255300 36.851379 5.188424 6.943016 0.861243 -1.259228
Spine -3.276292 4.772182 -3.897747
Head 0.732208 9.687528 1.790653
LeftShoulder -0.108618 -6.313650 -3.598028
LeftArm -1.897475 -19.014120 -65.018786
LeftForeArm -60.281648 -0.000000 94.548089
LeftHand -1.783915 -0.000000 -5.968724
LeftHandThumb1 -26.253704 0.000000 33.147579
RightShoulder -1.156262 -21.919947 -0.412961
RightArm 25.989951 -32.257005 53.167932
RightForeArm -147.837506 -0.000000 34.328868
RightHand -1.564900 -0.000000 -1.759103
RightHandThumb1 -24.326973 -0.000000 -32.862282
LeftUpLeg -4.469736 13.248642 5.660985
LeftLeg 7.281243 -0.000000 -0.000000
LeftFoot -16.424148 2.674795 -21.237723
LeftToeBase 14.928246 -0.000000 -0.000000
RightUpLeg -6.556011 -10.545095 0.233793
RightLeg 10.560361 -0.000000 -0.000000
RightFoot -16.173855 -4.005221 13.729510
RightToeBase 10.792414 -0.000000 -0.000000
2057
root -1.257209 36.850559 5.192513 6.925096 0.902492 -1.256347
Spine -3.276018 4.786692 -3.901040
Head 0.742411 9.691741 1.793922
LeftShoulder -0.114799 -6.320449 -3.616431
LeftArm -1.893184 -19.012443 -65.002986
LeftForeArm -60.320562 -0.000000 94.607063
LeftHand -2.085235 0.000000 -5.785517
LeftHandThumb1 -26.253704 0.000000 33.147579
RightShoulder -1.173814 -21.945018 -0.409585
RightArm 25.946839 -32.262521 53.200080
RightForeArm -147.855580 -0.000000 34.282053
RightHand -1.531999 0.000000 -1.721369
RightHandThumb1 -24.326973 -0.000000 -32.862282
LeftUpLeg -4.457951 13.210339 5.666948
LeftLeg 7.295837 -0.000000 -0.000000
LeftFoot -16.359208 2.690438 -21.026616
LeftToeBase 14.628800 -0.000000 -0.000000
RightUpLeg -6.535974 -10.607192 0.236046
RightLeg 10.579052 -0.000000 -0.000000
RightFoot -16.180458 -3.983458 13.728352
RightToeBase 10.780540 -0.000000 -0.000000
2058
root -1.260333 36.849565 5.195837 6.907581 0.957924 -1.251894
Spine -3.276540 4.791060 -3.909163
Head 0.765538 9.697837 1.805130
LeftShoulder -0.123594 -6.325876 -3.629969
LeftArm -1.882220 -19.008918 -64.977011
LeftForeArm -60.378591 -0.000000 94.652450
LeftHand -2.112514 0.000000 -5.657437
LeftHandThumb1 -26.253704 0.000000 33.147579
RightShoulder -1.180489 -21.960946 -0.409674
RightArm 25.895251 -32.281881 53.237631
RightForeArm -147.878274 0.000000 34.231057
RightHand -1.559467 -0.000000 -1.704209
RightHandThumb1 -24.326973 -0.000000 -32.862282
LeftUpLeg -4.448160 13.158520 5.682222
LeftLeg 7.297335 -0.000000 -0.000000
LeftFoot -16.429818 2.644137 -21.257777
LeftToeBase 14.932244 -0.000000 -0.000000
RightUpLeg -6.512200 -10.684848 0.242625
RightLeg 10.587545 -0.000000 -0.000000
RightFoot -16.219972 -3.981758 13.714883
RightToeBase 10.849218 -0.000000 -0.000000
2059
root -1.263276 36.848411 5.200200 6.872840 1.024202 -1.248252
Spine -3.252100 4.795487 -3.908787
Head 0.769064 9.718829 1.796743
LeftShoulder -0.130147 -6.349673 -3.646395
LeftArm -1.886136 -18.996829 -64.944560
LeftForeArm -60.480245 -0.000000 94.690492
LeftHand -1.990088 0.000000 -5.640895
LeftHandThumb1 -26.253704 0.000000 33.147579
RightShoulder -1.186946 -21.981612 -0.415810
RightArm 25.851252 -32.288104 53.275379
RightForeArm -147.913891 -0.000000 34.172011
RightHand -1.592439 -0.000000 -1.806355
RightHandThumb1 -24.326973 -0.000000 -32.862282
LeftUpLeg -4.423438 13.104188 5.700267
LeftLeg 7.308853 -0.000000 -0.000000
LeftFoot -16.445195 2.595633 -21.339933
LeftToeBase 14.997476 -0.000000 -0.000000
RightUpLeg -6.469117 -10.755686 0.243120
RightLeg 10.603924 -0.000000 -0.000000
RightFoot -16.251065 -3.970782 13.742197
RightToeBase 10.850520 -0.000000 -0.000000
2060
root -1.266230 36.847433 5.204426 6.852257 1.088802 -1.243033
Spine -3.248367 4.812189 -3.912557
Head 0.784927 9.733589 1.788009
LeftShoulder -0.138855 -6.351578 -3.661986
LeftArm -1.865933 -19.006278 -64.911131
LeftForeArm -60.554666 -0.000000 94.722363
LeftHand -1.996278 -0.000000 -5.645786
LeftHandThumb1 -26.253704 0.000000 33.147579
RightShoulder -1.197999 -22.012157 -0.427089
RightArm 25.814933 -32.293227 53.326302
RightForeArm -147.946073 -0.000000 34.101355
RightHand -1.570629 0.000000 -1.859208
RightHandThumb1 -24.326973 -0.000000 -32.862282
LeftUpLeg -4.407791 13.033055 5.712474
LeftLeg 7.308828 -0.000000 -0.000000
LeftFoot -16.436471 2.602735 -21.315524
LeftToeBase 14.959514 -0.000000 -0.000000
RightUpLeg -6.440916 -10.823297 0.246700
RightLeg 10.615592 -0.000000 -0.000000
RightFoot -16.271198 -3.990786 13.719743
RightToeBase 10.851431 -0.000000 -0.000000
2061
root -1.268911 36.846453 5.209602 6.818309 1.170530 -1.235426
Spine -3.224777 4.814689 -3.914640
Head 0.777563 9.741330 1.757626
LeftShoulder -0.161627 -6.382902 -3.675999
LeftArm -1.859421 -19.042304 -64.869553
LeftForeArm -60.606126 0.000000 94.753356
LeftHand -2.103980 -0.000000 -5.627996
LeftHandThumb1 -26.253704 0.000000 33.147579
RightShoulder -1.201346 -22.013896 -0.439936
RightArm 25.752507 -32.325676 53.368497
RightForeArm -147.958868 -0.000000 34.038334
RightHand -1.542405 -0.000000 -1.848840
RightHandThumb1 -24.326973 -0.000000 -32.862282
LeftUpLeg -4.386142 12.965888 5.723022
LeftLeg 7.326546 -0.000000 -0.000000
LeftFoot -16.358680 2.611966 -21.081127
LeftToeBase 14.663159 -0.000000 -0.000000
RightUpLeg -6.396215 -10.922968 0.244553
RightLeg 10.630336 -0.000000 -0.000000
RightFoot -16.297963 -3.969083 13.705601
RightToeBase 10.881814 -0.000000 -0.000000
2062
root -1.272385 36.845193 5.214754 6.781319 1.254820 -1.225307
Spine -3.198826 4.836570 -3.926117
Head 0.783595 9.745167 1.749558
LeftShoulder -0.163602 -6.390421 -3.676077
LeftArm -1.823342 -19.069408 -64.846045
LeftForeArm -60.756866 0.000000 94.765074
LeftHand -1.805502 -0.000000 -5.660379
LeftHandThumb1 -26.253704 0.000000 33.147579
RightShoulder -1.205495 -22.035415 -0.441122
RightArm 25.686886 -32.322616 53.421095
RightForeArm -147.970480 -0.000000 33.981385
RightHand -1.499441 -0.000000 -1.945842
RightHandThumb1 -24.326973 -0.000000 -32.862282
LeftUpLeg -4.364167 12.891068 5.736905
LeftLeg 7.345663 -0.000000 -0.000000
LeftFoot -16.350940 2.588406 -21.081765
LeftToeBase 14.632216 -0.000000 -0.000000
RightUpLeg -6.349581 -10.991053 0.240672
RightLeg 10.650572 -0.000000 -0.000000
RightFoot -16.335639 -3.980893 13.732418
RightToeBase 10.869548 -0.000000 -0.000000
2063
root -1.276542 36.844200 5.218800 6.763764 1.333650 -1.218298
Spine -3.193204 4.860234 -3.936674
Head 0.789616 9.755127 1.746406
LeftShoulder -0.189632 -6.417964 -3.688641
LeftArm -1.822620 -19.098940 -64.796745
LeftForeArm -60.763661 -0.000000 94.823565
LeftHand -1.798914 0.000000 -5.505802
LeftHandThumb1 -26.253704 0.000000 33.147579
RightShoulder -1.212521 -22.053327 -0.446769
RightArm 25.640097 -32.353645 53.452608
RightForeArm -148.006475 -0.000000 33.912958
RightHand -1.501222 -0.000000 -1.942724
RightHandThumb1 -24.326973 -0.000000 -32.862282
LeftUpLeg -4.353084 12.841956 5.753907
LeftLeg 7.337106 -0.000000 -0.000000
LeftFoot -16.415371 2.508447 -21.335659
LeftToeBase 14.967569 -0.000000 -0.000000
RightUpLeg -6.331067 -11.046040 0.245589
RightLeg 10.680293 -0.000000 -0.000000
RightFoot -16.376641 -4.015059 13.717092
RightToeBase 10.893821 -0.000000 -0.000000
2064
root -1.281020 36.842939 5.223015 6.743839 1.415964 -1.210914
Spine -3.188299 4.886285 -3.949364
Head 0.806869 9.757444 1.744719
LeftShoulder -0.221155 -6.422674 -3.692171
LeftArm -1.821622 -19.170793 -64.752897
LeftForeArm -60.839546 -0.000000 94.898797
LeftHand -2.122478 -0.000000 -5.311845
LeftHandThumb1 -26.253704 0.000000 33.147579
RightShoulder -1.204179 -22.089441 -0.452841
RightArm 25.595176 -32.365842 53.481855
RightForeArm -148.025441 -0.000000 33.848752
RightHand -1.451394 -0.000000 -1.952880
RightHandThumb1 -24.326973 -0.000000 -32.862282
LeftUpLeg -4.344710 12.778404 5.768142
LeftLeg 7.342943 -0.000000 -0.000000
LeftFoot -16.408175 2.474564 -21.373509
LeftToeBase 14.979685 -0.000000 -0.000000
RightUpLeg -6.311193 -11.087908 0.247543
RightLeg 10.718420 -0.000000 -0.000000
RightFoot -16.429162 -4.039634 13.749423
RightToeBase 10.875607 -0.000000 -0.000000
2065
root -1.285083 36.842109 5.228484 6.725274 1.504309 -1.203125
Spine -3.186677 4.929122 -3.960614
Head 0.812770 9.761215 1.727609
LeftShoulder -0.261901 -6.434495 -3.677671
LeftArm -1.811626 -19.235254 -64.809219
LeftForeArm -60.754853 0.000000 94.949687
LeftHand -1.935776 -0.000000 -5.222602
LeftHandThumb1 -26.253704 0.000000 33.147579
RightShoulder -1.204448 -22.102357 -0.454094
RightArm 25.511027 -32.388570 53.530494
RightForeArm -148.100072 -0.000000 33.789134
RightHand -1.448232 -0.000000 -1.984505
RightHandThumb1 -24.326973 -0.000000 -32.862282
LeftUpLeg -4.333427 12.721485 5.783746
LeftLeg 7.345916 -0.000000 -0.000000
LeftFoot -16.390445 2.413066 -21.381940
LeftToeBase 14.978875 -0.000000 -0.000000
RightUpLeg -6.285273 -11.149354 0.251499
RightLeg 10.740541 -0.000000 -0.000000
RightFoot -16.467671 -4.065800 13.767701
RightToeBase 10.888663 -0.000000 -0.000000
